<?xml version="1.0" encoding="utf-8"?>
<!-- Generator: Adobe Illustrator 25.2.1, SVG Export Plug-In . SVG Version: 6.00 Build 0)  -->
<svg version="1.1" id="Layer_1" xmlns="http://www.w3.org/2000/svg" xmlns:xlink="http://www.w3.org/1999/xlink" x="0px" y="0px"
	 viewBox="0 0 512 512" style="enable-background:new 0 0 512 512;" xml:space="preserve">
<style type="text/css">
	.st0{fill-rule:evenodd;clip-rule:evenodd;fill:url(#SVGID_1_);}
</style>
<linearGradient id="SVGID_1_" gradientUnits="userSpaceOnUse" x1="74.9806" y1="76.9806" x2="437.0194" y2="439.0194" gradientTransform="matrix(1 0 0 -1 0 514)">
	<stop  offset="0" style="stop-color:#011C49"/>
	<stop  offset="1" style="stop-color:#00B8E0"/>
</linearGradient>
<path class="st0" d="M256,0c141.4,0,256,114.6,256,256S397.4,512,256,512S0,397.4,0,256S114.6,0,256,0z M110.3,101.2
	c-5.1,0-9.3,4.2-9.3,9.3v178.1c0,5.1,4.2,9.3,9.3,9.3h81.8v-74.5c0-17.3,14.2-31.5,31.5-31.5h74.2v-81.4c0-5.1-4.2-9.3-9.3-9.3
	L110.3,101.2z M223.6,214.1c-5.1,0-9.3,4.2-9.3,9.3v178.1c0,5.1,4.2,9.3,9.3,9.3h178.1c5.1,0,9.3-4.2,9.3-9.3V223.4
	c0-5.1-4.2-9.3-9.3-9.3L223.6,214.1z"/>
</svg>
