<?xml version="1.0" encoding="utf-8"?>
<!-- Generator: Adobe Illustrator 25.2.1, SVG Export Plug-In . SVG Version: 6.00 Build 0)  -->
<svg version="1.1" id="Layer_1" xmlns="http://www.w3.org/2000/svg" xmlns:xlink="http://www.w3.org/1999/xlink" x="0px" y="0px"
	 viewBox="0 0 512 512" style="enable-background:new 0 0 512 512;" xml:space="preserve">
<style type="text/css">
	.st0{fill-rule:evenodd;clip-rule:evenodd;fill:url(#SVGID_1_);}
	.st1{fill-rule:evenodd;clip-rule:evenodd;fill:#FFFFFF;}
</style>
<linearGradient id="SVGID_1_" gradientUnits="userSpaceOnUse" x1="75.8726" y1="75.2582" x2="437.9114" y2="437.297">
	<stop  offset="0" style="stop-color:#011C49"/>
	<stop  offset="1" style="stop-color:#00B8E0"/>
</linearGradient>
<circle class="st0" cx="256.9" cy="256.3" r="256"/>
<path class="st1" d="M245.3,309.9c-0.8-1.2-1.8-2.2-2.9-2.9v2.9L245.3,309.9z M237.3,324.5c3.2,0,6.3-1.7,8-4.4h-6.2l-4.8,3.9
	C235.2,324.3,236.2,324.5,237.3,324.5L237.3,324.5z M232.2,307c-2.8,1.7-4.4,4.8-4.4,8c0,0.4,0,0.7,0.1,1.1l4.3-3.5V307z M217.6,315
	c0,10.9,8.8,19.6,19.7,19.6c10.9,0,19.6-8.8,19.6-19.7c0-10.8-8.8-19.6-19.6-19.6C226.4,295.3,217.6,304.1,217.6,315z M277.4,298.7
	c1.1,0,1.9-0.8,1.9-1.9c0-1.1-0.8-1.9-1.9-1.9c-1.1,0-1.9,0.8-1.9,1.9c0,0,0,0,0,0C275.5,297.9,276.4,298.7,277.4,298.7z
	 M235.1,277.7c1,0,1.9-0.9,1.9-1.9s-0.9-1.9-1.9-1.9c-1,0-1.9,0.9-1.9,1.9l0,0C233.2,276.8,234,277.6,235.1,277.7z M192.7,309
	c1,0,1.9-0.9,1.9-1.9s-0.9-1.9-1.9-1.9c-1,0-1.9,0.9-1.9,1.9l0,0C190.8,308.2,191.7,309,192.7,309z M319.8,273.8
	c-1,0-1.9,0.9-1.9,1.9c0,1,0.9,1.9,1.9,1.9c1,0,1.9-0.9,1.9-1.9l0,0C321.7,274.7,320.8,273.9,319.8,273.8z M319.8,287.8
	c6.7,0,12.1-5.4,12.1-12.1s-5.4-12.1-12.1-12.1s-12.1,5.4-12.1,12.1c0,0,0,0,0,0c0,0.1,0,0.2,0,0.3l-22.8,11.4
	c-4.4-3.6-10.7-3.6-15,0l-22.8-11.4c0-0.1,0-0.2,0-0.3c0-6.7-5.4-12.1-12.1-12.1s-12.1,5.4-12.1,12.1c0,0,0,0,0,0
	c0,0.8,0.1,1.6,0.2,2.4l-24.8,18.4c-1.8-1-3.7-1.5-5.8-1.5c-6.7,0-12.1,5.4-12.1,12.1c0,6.7,5.4,12.1,12.1,12.1
	c6.7,0,12.1-5.4,12.1-12.1c0,0,0,0,0,0c0-0.8-0.1-1.6-0.2-2.4l24.8-18.4c1.8,0.9,3.8,1.4,5.8,1.5c2.7,0,5.4-0.9,7.5-2.6l22.8,11.3
	c0,0.1,0,0.2,0,0.3c0,6.7,5.4,12.1,12.1,12.1s12.1-5.4,12.1-12.1c0,0,0,0,0,0c0-0.1,0-0.2,0-0.3l22.8-11.3
	C314.4,286.9,317.1,287.8,319.8,287.8L319.8,287.8z M213.9,226.9h-9.7v23.9h9.7V226.9L213.9,226.9z M235.6,203.5v47.3h9.7v-47.2
	L235.6,203.5z M267.1,217.4v33.3h9.7v-33.3H267.1z M298.6,193.5v57.3h9.7v-57.3L298.6,193.5z M194,221.8v28.9h-14.7
	c-2.8,0-5,2.3-5,5.1c0,2.7,2.3,5,5,5h153.8c2.8,0,5-2.3,5-5.1c0-2.7-2.3-5-5-5h-14.7v-62.4c0-2.8-2.3-5.1-5.1-5.1c0,0,0,0,0,0h-19.9
	c-2.8,0-5.1,2.3-5.1,5.1c0,0,0,0,0,0v62.4H287v-38.4c0-2.8-2.3-5.1-5.1-5.1c0,0,0,0,0,0H262c-2.8,0-5.1,2.3-5.1,5.1c0,0,0,0,0,0
	v38.4h-1.4v-52.3c0-2.8-2.3-5.1-5.1-5.1c0,0,0,0,0,0h-19.9c-2.8,0-5.1,2.3-5.1,5.1c0,0,0,0,0,0v52.3h-1.4v-28.9
	c0-2.8-2.3-5.1-5.1-5.1c0,0,0,0,0,0h-19.9C196.3,216.8,194,219,194,221.8C194,221.8,194,221.8,194,221.8L194,221.8z M165.2,375.3
	c0,2.8,2.3,5.1,5.1,5.1c0,0,0,0,0,0h172c2.8,0,5-2.3,5-5.1c0-2.7-2.3-5-5-5h-172C167.4,370.2,165.2,372.5,165.2,375.3
	C165.2,375.3,165.2,375.3,165.2,375.3L165.2,375.3z M165.2,343.7c0,2.8,2.3,5.1,5.1,5.1c0,0,0,0,0,0h172c2.8,0,5.1-2.3,5.1-5.1
	c0-2.8-2.3-5.1-5.1-5.1h-172C167.4,338.6,165.2,340.9,165.2,343.7C165.2,343.7,165.2,343.7,165.2,343.7L165.2,343.7z M249.5,174.6
	c0,2.8,2.3,5.1,5.1,5.1h87.6c2.8,0,5-2.3,5-5.1c0-2.7-2.3-5-5-5h-87.6C251.8,169.5,249.5,171.8,249.5,174.6
	C249.5,174.6,249.5,174.6,249.5,174.6L249.5,174.6z M249.5,145.2c0,2.8,2.3,5.1,5.1,5.1c0,0,0,0,0,0h58.5c2.8,0,5.1-2.3,5.1-5.1
	c0-2.8-2.3-5.1-5.1-5.1h-58.5C251.8,140.2,249.5,142.4,249.5,145.2C249.5,145.2,249.5,145.2,249.5,145.2L249.5,145.2z M175.4,159.8
	c0,4.3,3.3,7.9,8,9.4v-18.9C178.7,152,175.4,155.6,175.4,159.8L175.4,159.8z M201.6,190.5c0-4.3-3.3-7.9-8-9.4v18.9
	C198.3,198.4,201.6,194.7,201.6,190.5L201.6,190.5z M175.4,190.5c0-2.8-2.2-5.1-5-5.1c-2.8,0-5.1,2.2-5.1,5c0,0,0,0.1,0,0.1
	c0,9.7,7.8,17.9,18.2,19.9v2.7c0,2.8,2.3,5.1,5.1,5.1s5.1-2.3,5.1-5.1v-2.7c10.4-2,18.2-10.2,18.2-19.9c0-9.7-7.8-17.9-18.2-19.9
	v-20.2c4.7,1.5,8,5.2,8,9.4c0,2.8,2.3,5.1,5.1,5.1s5.1-2.3,5.1-5.1c0-9.7-7.8-17.9-18.2-19.9v-2.7c0-2.8-2.3-5.1-5.1-5.1
	s-5.1,2.3-5.1,5.1v2.7c-10.4,2-18.2,10.2-18.2,19.9c0,9.8,7.8,17.9,18.2,19.9v20.2C178.7,198.4,175.4,194.7,175.4,190.5L175.4,190.5
	z M377.2,93.8H135.3c-2.8,0-5.1,2.3-5.1,5.1c0,0,0,0,0,0v314.8c0,2.8,2.3,5.1,5.1,5.1c0,0,0,0,0,0h241.9c2.8,0,5.1-2.3,5.1-5.1
	c0,0,0,0,0,0V98.9C382.3,96.1,380,93.8,377.2,93.8C377.2,93.8,377.2,93.8,377.2,93.8z"/>
</svg>
