<?xml version="1.0" encoding="utf-8"?>
<!-- Generator: Adobe Illustrator 25.2.1, SVG Export Plug-In . SVG Version: 6.00 Build 0)  -->
<svg version="1.1" id="Layer_1" xmlns="http://www.w3.org/2000/svg" xmlns:xlink="http://www.w3.org/1999/xlink" x="0px" y="0px"
	 viewBox="0 0 512 512" style="enable-background:new 0 0 512 512;" xml:space="preserve">
<style type="text/css">
	.st0{fill-rule:evenodd;clip-rule:evenodd;fill:url(#SVGID_1_);}
	.st1{fill:#FFFFFF;}
</style>
<linearGradient id="SVGID_1_" gradientUnits="userSpaceOnUse" x1="74.9806" y1="75.4806" x2="437.0194" y2="437.5194">
	<stop  offset="0" style="stop-color:#011C49"/>
	<stop  offset="1" style="stop-color:#00B8E0"/>
</linearGradient>
<circle class="st0" cx="256" cy="256.5" r="256"/>
<g>
	<path class="st1" d="M247.9,402H138.1c-6.9,0-12.4-5.6-12.4-12.4c0-6.9,5.6-12.5,12.4-12.5h90.6c8.3,0,15-6.7,15-15
		c0-8.3-6.7-15-15-15h-48.1V148c0-8.3-6.7-15-15-15s-15,6.7-15,15v199.1h-12.4c-4.3,0-8.5,0.7-12.4,1.9V120.5
		c0-6.9,5.6-12.5,12.4-12.5h225.9v145.6c0,8.3,6.7,15,15,15s15-6.7,15-15V93.1c0-8.3-6.7-15-15-15H138.1c-23.4,0-42.4,19-42.4,42.4
		v269c0,23.4,19,42.4,42.4,42.4h109.8c8.3,0,15-6.7,15-15C262.9,408.7,256.1,402,247.9,402z"/>
	<path class="st1" d="M420.7,343.3c-1.8-5.5-6.5-9.5-12.2-10.3l-33.7-4.8l-15.1-30.5c-2.5-5.1-7.7-8.4-13.4-8.4
		c-5.7,0-10.9,3.2-13.4,8.4l-15.1,30.4l-33.7,4.8c-5.7,0.8-10.4,4.8-12.2,10.3c-1.8,5.5-0.2,11.5,3.9,15.4l24.2,23.1l-5.9,32.5
		c-1,5.6,1.2,11.3,5.8,14.7c4.6,3.4,10.7,3.9,15.8,1.3l30.6-15.6l31.3,15.7c2.1,1.1,4.4,1.6,6.7,1.6c3.2,0,6.4-1,9.1-3.1
		c4.6-3.5,6.7-9.2,5.6-14.9l-6.5-32.4l24.1-23C420.9,354.8,422.4,348.8,420.7,343.3z M366,365.7c-3.7,3.5-5.4,8.7-4.4,13.8l2.1,10.4
		l-10.7-5.3c-2.1-1.1-4.4-1.6-6.7-1.6c-2.3,0-4.7,0.5-6.8,1.6l-10.4,5.3l1.9-10.6c0.9-5-0.7-10.1-4.4-13.5l-7.7-7.3l10.9-1.6
		c4.9-0.7,9.1-3.8,11.3-8.2l5.1-10.3l5.1,10.3c2.2,4.4,6.4,7.5,11.3,8.2l10.9,1.6L366,365.7z"/>
</g>
</svg>
