<svg id="Layer_1" data-name="Layer 1" xmlns="http://www.w3.org/2000/svg" xmlns:xlink="http://www.w3.org/1999/xlink" viewBox="0 0 3873 3873"><defs><style>.cls-1{fill:url(#linear-gradient);}.cls-2{fill:#fff;}</style><linearGradient id="linear-gradient" x1="567.19" y1="3306.81" x2="3305.81" y2="568.19" gradientTransform="matrix(1, 0, 0, -1, 0, 3874)" gradientUnits="userSpaceOnUse"><stop offset="0" stop-color="#011c49"/><stop offset="1" stop-color="#00b8e0"/></linearGradient></defs><circle class="cls-1" cx="1936.5" cy="1936.5" r="1936.5"/><path class="cls-2" d="M2331.16,1243.3c-14.82-72.8-85-119.62-156.8-104.58l-868.43,181.94h1041Z"/><path class="cls-2" d="M2257.81,2205.1V1995.71c0-95.45,76.57-173.09,170.67-173.09h261.1V1558.39c0-74.33-59.41-134.59-132.7-134.59H1304.7c-73.29,0-132.7,60.26-132.7,134.59v1084c0,74.33,59.41,134.6,132.7,134.6H2556.88c73.29,0,132.7-60.27,132.7-134.6V2378.19h-261.1C2334.38,2378.19,2257.81,2300.54,2257.81,2205.1Z"/><path class="cls-2" d="M2765.09,1899.62H2428.48c-52.24,0-94.74,43.1-94.74,96.09V2205.1c0,53,42.5,96.09,94.74,96.09h336.61c52.24,0,94.75-43.11,94.75-96.09V1995.71C2859.84,1942.72,2817.33,1899.62,2765.09,1899.62Zm-262.66,297.47c-52.11,0-94.36-42.84-94.36-95.69s42.25-95.7,94.36-95.7,94.36,42.84,94.36,95.7S2554.55,2197.09,2502.43,2197.09Z"/></svg>