<?xml version="1.0" encoding="utf-8"?>
<!-- Generator: Adobe Illustrator 25.2.1, SVG Export Plug-In . SVG Version: 6.00 Build 0)  -->
<svg version="1.1" id="Layer_1" xmlns="http://www.w3.org/2000/svg" xmlns:xlink="http://www.w3.org/1999/xlink" x="0px" y="0px"
	 viewBox="0 0 3873 3873" style="enable-background:new 0 0 3873 3873;" xml:space="preserve">
<style type="text/css">
	.st0{fill-rule:evenodd;clip-rule:evenodd;fill:url(#SVGID_1_);}
	.st1{fill-rule:evenodd;clip-rule:evenodd;fill:#FFFFFF;}
</style>
<linearGradient id="SVGID_1_" gradientUnits="userSpaceOnUse" x1="567.1874" y1="567.1874" x2="3305.8125" y2="3305.8125">
	<stop  offset="0" style="stop-color:#011C49"/>
	<stop  offset="1" style="stop-color:#00B8E0"/>
</linearGradient>
<circle class="st0" cx="1936.5" cy="1936.5" r="1936.5"/>
<g id="Layer_1_1_">
	<g>
		<path class="st1" d="M2037.1,2357.5h-927.8c-17.3,0-31.3-14-31.3-31.3s14-31.3,31.3-31.3h927.8c17.3,0,31.3,14,31.3,31.3
			S2054.4,2357.5,2037.1,2357.5L2037.1,2357.5z M2164.8,2730.3V1679.6c0-30.6-12.4-58.4-32.5-78.4c-20.1-20.1-47.8-32.5-78.4-32.5
			h-738.2h-223.2c-30.6,0-58.4,12.4-78.4,32.5c-20.1,20.1-32.5,47.8-32.5,78.4v1293.1c0,30.6,12.4,58.4,32.5,78.4
			c20.1,20.1,47.8,32.5,78.4,32.5h961.3c30.6,0,58.4-12.4,78.4-32.5c20.1-20.1,32.6-47.9,32.6-78.4h-0.1V2732c0-0.3,0-0.6,0-0.9
			C2164.8,2730.9,2164.8,2730.6,2164.8,2730.3L2164.8,2730.3z M2037.1,2155h-927.8c-17.3,0-31.3-14-31.3-31.3s14-31.3,31.3-31.3
			h927.8c17.3,0,31.3,14,31.3,31.3S2054.4,2155,2037.1,2155z M2037.1,1952.5h-927.8c-17.3,0-31.3-14-31.3-31.3s14-31.3,31.3-31.3
			h927.8c17.3,0,31.3,14,31.3,31.3S2054.4,1952.5,2037.1,1952.5z M1109.3,2497.4h927.8c17.3,0,31.3,14,31.3,31.3s-14,31.3-31.3,31.3
			h-927.8c-17.3,0-31.3-14-31.3-31.3S1092,2497.4,1109.3,2497.4z M1109.3,2699.9h927.8c17.3,0,31.3,14,31.3,31.3s-14,31.3-31.3,31.3
			h-927.8c-17.3,0-31.3-14-31.3-31.3S1092,2699.9,1109.3,2699.9z M1078,2933.7c0-17.3,14-31.3,31.3-31.3h927.8
			c17.3,0,31.3,14,31.3,31.3s-14,31.3-31.3,31.3h-927.8C1092,2965,1078,2951,1078,2933.7z M2037.1,1750h-927.8
			c-17.3,0-31.3-14-31.3-31.3s14-31.3,31.3-31.3h927.8c17.3,0,31.3,14,31.3,31.3S2054.4,1750,2037.1,1750L2037.1,1750z"/>
		<path class="st1" d="M2530.1,2602.1V1282.8c0-27-11-51.5-28.7-69.2s-42.2-28.7-69.2-28.7h-987.5c-27,0-51.5,10.9-69.2,28.7
			c-17.7,17.7-28.7,42.2-28.7,69.2v223.4h706.9c47.9,0,91.3,19.4,122.7,50.8s50.8,74.8,50.8,122.7V2700h205c27,0,51.5-11,69.2-28.7
			C2519.2,2653.5,2530.1,2629.1,2530.1,2602.1z M2402.4,2518.6c17.3,0,31.3,14,31.3,31.3s-14,31.3-31.3,31.3h-78.7
			c-17.3,0-31.3-14-31.3-31.3s14-31.3,31.3-31.3H2402.4z M2433.7,2347.4c0,17.3-14,31.3-31.3,31.3h-78.7c-17.3,0-31.3-14-31.3-31.3
			s14-31.3,31.3-31.3h78.7C2419.7,2316.1,2433.7,2330.1,2433.7,2347.4z M2433.7,2144.9c0,17.3-14,31.3-31.3,31.3h-78.7
			c-17.3,0-31.3-14-31.3-31.3s14-31.3,31.3-31.3h78.7C2419.7,2113.7,2433.7,2127.7,2433.7,2144.9z M2433.7,1942.4
			c0,17.3-14,31.3-31.3,31.3h-78.7c-17.3,0-31.3-14-31.3-31.3s14-31.3,31.3-31.3h78.7C2419.7,1911.2,2433.7,1925.2,2433.7,1942.4z
			 M2433.7,1739.9c0,17.3-14,31.3-31.3,31.3h-78.7c-17.3,0-31.3-14-31.3-31.3s14-31.3,31.3-31.3h78.7
			C2419.7,1708.6,2433.7,1722.6,2433.7,1739.9z M2299.2,1568.7c-17.3,0-31.3-14-31.3-31.3s14-31.3,31.3-31.3h103.2
			c17.3,0,31.3,14,31.3,31.3s-14,31.3-31.3,31.3H2299.2z M2402.4,1366.2h-927.8c-17.3,0-31.3-14-31.3-31.3s14-31.3,31.3-31.3h927.8
			c17.3,0,31.3,14,31.3,31.3S2419.7,1366.2,2402.4,1366.2z"/>
		<path class="st1" d="M2767.8,2197.2h-78.7c-17.3,0-31.3-14-31.3-31.3s14-31.3,31.3-31.3h78.7c17.3,0,31.3,14,31.3,31.3
			S2785.1,2197.2,2767.8,2197.2z M2895.5,2218.1V898.8c0-27-11-51.5-28.7-69.2s-42.2-28.7-69.2-28.7h-987.5
			c-27,0-51.5,10.9-69.2,28.7c-17.7,17.7-28.7,42.2-28.7,69.2v223.6h720c44.3,0,84.4,18,113.4,47s47,69.1,47,113.4v1033.3h205v-0.1
			c27,0,51.5-11,69.2-28.7S2895.5,2245.1,2895.5,2218.1z M2799.1,1963.4c0,17.3-14,31.3-31.3,31.3h-78.7c-17.3,0-31.3-14-31.3-31.3
			s14-31.3,31.3-31.3h78.7C2785.1,1932.2,2799.1,1946.2,2799.1,1963.4z M2799.1,1760.9c0,17.3-14,31.3-31.3,31.3h-78.7
			c-17.3,0-31.3-14-31.3-31.3s14-31.3,31.3-31.3h78.7C2785.1,1729.7,2799.1,1743.7,2799.1,1760.9z M2799.1,1558.4
			c0,17.3-14,31.3-31.3,31.3h-78.7c-17.3,0-31.3-14-31.3-31.3s14-31.3,31.3-31.3h78.7C2785.1,1527.2,2799.1,1541.2,2799.1,1558.4z
			 M2799.1,1355.9c0,17.3-14,31.3-31.3,31.3h-78.7c-17.3,0-31.3-14-31.3-31.3s14-31.3,31.3-31.3h78.7
			C2785.1,1324.7,2799.1,1338.7,2799.1,1355.9z M2664.6,1184.7c-17.3,0-31.3-14-31.3-31.3s14-31.3,31.3-31.3h103.2
			c17.3,0,31.3,14,31.3,31.3s-14,31.3-31.3,31.3H2664.6z M2767.8,982.2H1840c-17.3,0-31.3-14-31.3-31.3s14-31.3,31.3-31.3h927.8
			c17.3,0,31.3,14,31.3,31.3S2785.1,982.2,2767.8,982.2z"/>
	</g>
</g>
<g id="Master_Layer_3">
</g>
</svg>
