<?xml version="1.0" encoding="utf-8"?>
<!-- Generator: Adobe Illustrator 25.2.1, SVG Export Plug-In . SVG Version: 6.00 Build 0)  -->
<svg version="1.1" id="Layer_1" xmlns="http://www.w3.org/2000/svg" xmlns:xlink="http://www.w3.org/1999/xlink" x="0px" y="0px"
	 viewBox="0 0 512 512" style="enable-background:new 0 0 512 512;" xml:space="preserve">
<style type="text/css">
	.st0{fill-rule:evenodd;clip-rule:evenodd;fill:url(#SVGID_1_);}
	.st1{fill:#FFFFFF;}
</style>
<g>
	<linearGradient id="SVGID_1_" gradientUnits="userSpaceOnUse" x1="74.9806" y1="75.4806" x2="437.0194" y2="437.5194">
		<stop  offset="0" style="stop-color:#011C49"/>
		<stop  offset="1" style="stop-color:#00B8E0"/>
	</linearGradient>
	<circle class="st0" cx="256" cy="256.5" r="256"/>
	<path class="st1" d="M435.9,319.1l-104.3-91c16.6-18.5,25.9-42.3,25.9-67.7C357.4,104.5,311.9,59,256,59s-101.4,45.5-101.4,101.4
		c0,25.4,9.3,49.2,25.9,67.7l-104.3,91c-5.6,4.9-6.8,13.3-2.7,19.5l54.7,83.6c2.8,4.2,7.5,6.8,12.5,6.8h230.5
		c5.1,0,9.8-2.5,12.5-6.8l54.7-83.6C442.7,332.4,441.5,324.1,435.9,319.1z M203.9,247.5C203.9,247.5,203.9,247.5,203.9,247.5
		c0.2,0.1,0.4,0.2,0.5,0.3c1,0.6,1.9,1.1,2.9,1.7c0.4,0.2,0.8,0.4,1.1,0.6c0.8,0.4,1.5,0.8,2.3,1.2c0.4,0.2,0.8,0.4,1.3,0.6
		c0.8,0.4,1.6,0.7,2.3,1.1c0.4,0.2,0.8,0.4,1.2,0.5c1,0.4,2,0.9,3,1.3c0.2,0.1,0.4,0.1,0.5,0.2c1.2,0.5,2.4,0.9,3.6,1.3
		c0.4,0.1,0.7,0.2,1.1,0.4c0.9,0.3,1.7,0.6,2.6,0.8c0.4,0.1,0.9,0.3,1.3,0.4c0.8,0.2,1.6,0.5,2.5,0.7c0.4,0.1,0.9,0.2,1.3,0.3
		c0.9,0.2,1.8,0.4,2.8,0.6c0.3,0.1,0.7,0.2,1,0.2c1.3,0.3,2.5,0.5,3.8,0.7c0.3,0,0.6,0.1,0.8,0.1c1,0.2,2,0.3,3,0.4
		c0.4,0.1,0.9,0.1,1.3,0.2c0.9,0.1,1.7,0.2,2.6,0.3c0.5,0,0.9,0.1,1.4,0.1c0.9,0.1,1.8,0.1,2.7,0.2c0.4,0,0.8,0,1.2,0.1
		c1.3,0,2.6,0.1,3.9,0.1c1.3,0,2.6,0,3.9-0.1c0.4,0,0.8,0,1.2-0.1c0.9,0,1.8-0.1,2.7-0.2c0.5,0,0.9-0.1,1.4-0.1
		c0.9-0.1,1.7-0.2,2.6-0.3c0.4-0.1,0.9-0.1,1.3-0.2c1-0.1,2-0.3,3-0.4c0.3,0,0.6-0.1,0.8-0.1c1.3-0.2,2.5-0.4,3.8-0.7
		c0.3-0.1,0.7-0.2,1-0.2c0.9-0.2,1.8-0.4,2.7-0.6c0.4-0.1,0.9-0.2,1.3-0.3c0.8-0.2,1.6-0.4,2.4-0.7c0.5-0.1,0.9-0.3,1.3-0.4
		c0.9-0.3,1.7-0.5,2.5-0.8c0.4-0.1,0.8-0.2,1.1-0.4c1.2-0.4,2.4-0.9,3.6-1.3c0.2-0.1,0.4-0.2,0.6-0.2c1-0.4,2-0.8,3-1.2
		c0.4-0.2,0.8-0.4,1.2-0.5c0.8-0.4,1.5-0.7,2.3-1.1c0.4-0.2,0.9-0.4,1.3-0.6c0.8-0.4,1.5-0.8,2.3-1.2c0.4-0.2,0.8-0.4,1.2-0.6
		c0.9-0.5,1.9-1.1,2.8-1.6c0.2-0.1,0.4-0.2,0.5-0.3c0,0,0,0,0.1,0l7.3,6.4L256,333.2l-59.5-79.3L203.9,247.5z M256,89
		c39.4,0,71.4,32,71.4,71.4c0,22.1-10,42.6-27.4,56.3c-12.7,9.9-27.9,15.2-44,15.2c-3,0-6-0.2-9-0.5c-12.8-1.6-24.8-6.6-35-14.6
		c-17.4-13.7-27.4-34.2-27.4-56.3C184.6,121,216.6,89,256,89z M363.1,399H148.9l-43.1-65.9l68.1-59.5l70.1,93.5c2.8,3.8,7.3,6,12,6
		c4.7,0,9.2-2.2,12-6l70.1-93.5l68.1,59.5L363.1,399z"/>
</g>
</svg>
